# xmcd
#
# Track frame offsets:
#	150
#	11482
#	28923
#	46897
#	64516
#	82372
#	109966
#	130052
#	150638
#	174137
#	197677
#	211656
#	227528
#	252539
#
# Disc length: 3585 seconds
#
# Revision: 0
# Processed by: cddbd v1.5.2PL0 Copyright (c) Steve Scherf et al.
# Submitted via: EasyCDDAExtractor 11.0.0.1
#
DISCID=b40dff0e
DTITLE=ΚΑΤΣΙΜΙΧΑΙΟΙ - 20 ΧΡΟΝΙΑ LIVE CD2 ΚΑΤΣΙΜΙΧΑΙΟΙ 
DYEAR=1900
DGENRE=ΕΝΤΕΧΝΑ
TTITLE0=Κατσιμιχαίοι_01 Παίξε βραχνή μου φυσαρμόνικα
TTITLE1=Κατσιμιχαίοι_02 Λουλούδι του δάσους
TTITLE2=Κατσιμιχαίοι_03 Μάρκος και Άννα
TTITLE3=Κατσιμιχαίοι_04 Μπλάμπ-τροϊ Καφέ (Berlin 1976)
TTITLE4=Κατσιμιχαίοι_06 Του έρωτα
TTITLE5=Κατσιμιχαίοι_07 Φάνης
TTITLE6=Κατσιμιχαίοι_08 Καλό ταξίδι (Σούζυ)
TTITLE7=Κατσιμιχαίοι_09 Άν είσαι Θεός
TTITLE8=Κατσιμιχαίοι_10 Γυμνή σκιά
TTITLE9=Κατσιμιχαίοι_11 Don't worry be happy
TTITLE10=Κατσιμιχαίοι_12 Μια βραδυά στο λούκι
TTITLE11=Κατσιμιχαίοι_13 Ρίτα Ριτάκι
TTITLE12=Κατσιμιχαίοι_14 Σχήμα λόγου
TTITLE13=Κατσιμιχαίοι_15 Γέλα πουλί μου
EXTD=
EXTT0=
EXTT1=
EXTT2=
EXTT3=
EXTT4=
EXTT5=
EXTT6=
EXTT7=
EXTT8=
EXTT9=
EXTT10=
EXTT11=
EXTT12=
EXTT13=
PLAYORDER=
